<?xml version="1.0" standalone="no"?>
<!DOCTYPE svg PUBLIC "-//W3C//DTD SVG 20010904//EN"
 "http://www.w3.org/TR/2001/REC-SVG-20010904/DTD/svg10.dtd">
<svg version="1.0" xmlns="http://www.w3.org/2000/svg"
 width="416.000000pt" height="416.000000pt" viewBox="0 0 416.000000 416.000000"
 preserveAspectRatio="xMidYMid meet">
<metadata>
Created by potrace 1.11, written by Peter Selinger 2001-2013
</metadata>
<g transform="translate(0.000000,416.000000) scale(0.100000,-0.100000)"
fill="#000000" stroke="none">
<path d="M1210 3142 c-1 -10 -1 -1477 0 -1530 0 -49 -10 -47 120 -22 30 6 69
13 85 15 28 5 163 30 210 39 11 2 40 7 65 12 25 4 48 9 53 10 4 1 17 2 30 4
19 1 18 3 -8 11 -16 5 -42 10 -57 13 -15 2 -101 19 -192 37 -123 24 -166 37
-168 48 -5 25 -2 1160 3 1166 3 2 102 25 220 51 192 41 242 54 213 54 -12 0
-270 44 -324 55 -44 9 -204 37 -227 40 -13 2 -23 0 -23 -3z"/>
<path d="M2600 3134 c-30 -7 -68 -15 -85 -18 -16 -2 -97 -19 -180 -36 -82 -18
-159 -34 -170 -36 -27 -5 -316 -65 -335 -69 -50 -11 -218 -45 -235 -48 -11 -2
-56 -11 -100 -21 l-80 -18 0 -533 0 -534 72 -16 c40 -9 85 -18 100 -21 15 -3
44 -9 63 -14 28 -7 153 -35 250 -55 21 -4 16 -17 -44 -103 -74 -108 -74 -106
-15 -76 107 54 281 134 292 134 6 0 74 -14 152 -31 324 -70 365 -79 374 -79
12 0 16 1576 4 1583 -5 2 -33 -2 -63 -9z"/>
<path d="M715 1262 l0 -209 50 1 50 2 -1 69 c-1 64 1 72 25 92 l27 21 57 -92
56 -92 56 0 c31 1 56 5 56 9 0 4 -36 61 -80 126 l-80 118 81 81 80 82 -71 0
c-39 0 -71 -3 -71 -7 0 -5 -31 -41 -69 -82 l-68 -75 1 82 2 82 -51 0 -50 0 0
-208z"/>
<path d="M2110 1404 c0 -59 -2 -65 -17 -59 -68 28 -73 29 -120 17 -26 -7 -53
-18 -61 -24 -41 -34 -60 -145 -36 -204 18 -43 69 -84 107 -85 56 -2 81 2 105
17 18 12 22 12 22 1 0 -10 13 -13 48 -12 l47 1 0 207 0 207 -47 0 -48 0 0 -66z
m-29 -133 c35 -29 33 -95 -4 -127 -21 -18 -35 -22 -55 -18 -39 9 -52 25 -56
72 -8 77 58 119 115 73z"/>
<path d="M2625 1263 l0 -208 42 -1 c24 0 46 2 50 5 5 3 8 97 8 209 l0 202 -50
0 -50 0 0 -207z"/>
<path d="M3159 1468 c-1 -2 -2 -96 -3 -209 l-2 -205 48 0 48 -1 0 47 c0 33 5
52 19 64 18 16 20 16 39 -16 12 -19 28 -47 36 -63 14 -27 19 -29 76 -30 33 0
60 1 60 3 0 2 -28 44 -62 93 l-63 90 58 55 c31 30 57 57 57 59 0 3 -27 5 -59
5 -59 0 -60 -1 -110 -52 l-51 -53 0 108 0 107 -45 0 c-25 0 -46 -1 -46 -2z"/>
<path d="M1646 1350 c-29 -14 -36 -15 -36 -4 0 10 -14 14 -50 14 l-50 0 0
-153 0 -154 48 2 47 1 0 88 c0 78 2 90 24 112 23 24 55 31 78 16 8 -5 13 -44
15 -112 l3 -105 45 0 45 0 1 120 c0 66 -3 128 -8 138 -24 48 -105 67 -162 37z"/>
<path d="M2329 1349 c-64 -38 -92 -114 -70 -196 33 -123 214 -148 295 -40 29
39 30 149 2 190 -43 64 -156 87 -227 46z m142 -97 c13 -24 15 -42 8 -70 -10
-46 -35 -65 -74 -57 -40 7 -55 30 -55 82 0 89 83 119 121 45z"/>
<path d="M1141 1258 c1 -126 12 -171 44 -192 30 -20 97 -21 135 -1 19 10 30
11 32 4 2 -7 25 -13 51 -14 l47 -3 0 154 0 154 -49 0 -50 0 2 -91 c1 -88 1
-92 -26 -115 -16 -13 -36 -24 -46 -24 -34 0 -41 21 -41 127 l0 103 -50 0 -50
0 1 -102z"/>
<path d="M2785 1237 c2 -131 10 -157 52 -176 34 -15 93 -13 127 4 35 18 36 18
36 2 0 -9 14 -13 46 -12 l46 1 2 152 1 153 -50 -3 -50 -3 0 -87 c0 -82 -2 -89
-27 -115 -24 -23 -31 -26 -55 -17 l-28 10 0 107 0 107 -51 0 -51 0 2 -123z"/>
</g>
</svg>
